<svg width="128" height="49" viewBox="0 0 128 49" fill="none" xmlns="http://www.w3.org/2000/svg">
<path fill-rule="evenodd" clip-rule="evenodd" d="M127.094 0H0V49H127.094V0ZM46.0112 35.2188C44.3818 35.2188 42.8447 34.9243 41.4001 34.3353C39.9722 33.73 38.7123 32.9039 37.6204 31.8569C36.5453 30.8099 35.697 29.5911 35.0755 28.2005C34.4707 26.81 34.1683 25.3212 34.1683 23.7344C34.1683 22.1475 34.4707 20.6588 35.0755 19.2682C35.697 17.8777 36.5453 16.6589 37.6204 15.6119C38.7123 14.5649 39.9722 13.7469 41.4001 13.158C42.8447 12.5527 44.3818 12.25 46.0112 12.25C47.6575 12.25 49.1946 12.5527 50.6224 13.158C52.0503 13.7469 53.3018 14.5649 54.3769 15.6119C55.4688 16.6589 56.3171 17.8777 56.9218 19.2682C57.5434 20.6588 57.8542 22.1475 57.8542 23.7344C57.8542 25.3212 57.5434 26.81 56.9218 28.2005C56.3171 29.5911 55.4688 30.8099 54.3769 31.8569C53.3018 32.9039 52.0503 33.73 50.6224 34.3353C49.1946 34.9243 47.6575 35.2188 46.0112 35.2188ZM46.0112 32.5685C47.6743 32.5685 49.1778 32.1759 50.5216 31.3906C51.8655 30.589 52.9238 29.5175 53.6965 28.176C54.4861 26.8345 54.8808 25.354 54.8808 23.7344C54.8808 22.0984 54.4861 20.6179 53.6965 19.2928C52.9238 17.9513 51.8655 16.8879 50.5216 16.1027C49.1778 15.301 47.6743 14.9002 46.0112 14.9002C44.3482 14.9002 42.8447 15.301 41.5009 16.1027C40.1738 16.8879 39.1155 17.9513 38.326 19.2928C37.5364 20.6179 37.1417 22.0984 37.1417 23.7344C37.1417 25.354 37.5364 26.8345 38.326 28.176C39.1155 29.5175 40.1738 30.589 41.5009 31.3906C42.8447 32.1759 44.3482 32.5685 46.0112 32.5685ZM22.9687 34.777V12.6917H25.8413V32.274H33.703V34.777H22.9687ZM62.6244 12.6917V34.777H65.4969V24.6178H68.3191L75.5256 34.777H78.8769L71.2672 24.1025C72.4935 23.6444 73.4594 22.9328 74.1649 21.9675C74.8705 21.0023 75.2233 19.9144 75.2233 18.7038C75.2233 17.6241 74.9377 16.6343 74.3665 15.7346C73.8122 14.8184 73.0227 14.0823 71.9979 13.526C70.9732 12.9698 69.7469 12.6917 68.3191 12.6917H62.6244ZM68.3191 22.262H65.4969V15.1947H68.3191C69.579 15.1947 70.5869 15.5219 71.3428 16.1763C72.1155 16.8307 72.5019 17.6732 72.5019 18.7038C72.5019 19.2764 72.3507 19.8408 72.0483 20.397C71.7628 20.9369 71.3092 21.3868 70.6877 21.7467C70.0829 22.0902 69.2934 22.262 68.3191 22.262ZM82.5172 34.777V12.6917H85.3897V34.777H82.5172ZM99.8666 15.1947L89.9135 34.777H103.671V32.274H94.1719L104.125 12.6917H90.9718V15.1947H99.8666Z" fill="white"/>
</svg>
