<svg width="316" height="49" viewBox="0 0 316 49" fill="none" xmlns="http://www.w3.org/2000/svg">
<path fill-rule="evenodd" clip-rule="evenodd" d="M127.094 0H0V49H127.094V0ZM46.0112 35.2188C44.3818 35.2188 42.8447 34.9243 41.4001 34.3353C39.9722 33.73 38.7123 32.9039 37.6204 31.8569C36.5453 30.8099 35.697 29.5911 35.0755 28.2005C34.4707 26.81 34.1683 25.3212 34.1683 23.7344C34.1683 22.1475 34.4707 20.6588 35.0755 19.2682C35.697 17.8777 36.5453 16.6589 37.6204 15.6119C38.7123 14.5649 39.9722 13.7469 41.4001 13.158C42.8447 12.5527 44.3818 12.25 46.0112 12.25C47.6575 12.25 49.1946 12.5527 50.6224 13.158C52.0503 13.7469 53.3018 14.5649 54.3769 15.6119C55.4688 16.6589 56.3171 17.8777 56.9218 19.2682C57.5434 20.6588 57.8542 22.1475 57.8542 23.7344C57.8542 25.3212 57.5434 26.81 56.9218 28.2005C56.3171 29.5911 55.4688 30.8099 54.3769 31.8569C53.3018 32.9039 52.0503 33.73 50.6224 34.3353C49.1946 34.9243 47.6575 35.2188 46.0112 35.2188ZM46.0112 32.5685C47.6743 32.5685 49.1778 32.1759 50.5216 31.3906C51.8655 30.589 52.9238 29.5175 53.6965 28.176C54.4861 26.8345 54.8808 25.354 54.8808 23.7344C54.8808 22.0984 54.4861 20.6179 53.6965 19.2928C52.9238 17.9513 51.8655 16.8879 50.5216 16.1027C49.1778 15.301 47.6743 14.9002 46.0112 14.9002C44.3482 14.9002 42.8447 15.301 41.5009 16.1027C40.1738 16.8879 39.1155 17.9513 38.326 19.2928C37.5364 20.6179 37.1417 22.0984 37.1417 23.7344C37.1417 25.354 37.5364 26.8345 38.326 28.176C39.1155 29.5175 40.1738 30.589 41.5009 31.3906C42.8447 32.1759 44.3482 32.5685 46.0112 32.5685ZM22.9687 34.777V12.6917H25.8413V32.274H33.703V34.777H22.9687ZM62.6244 12.6917V34.777H65.4969V24.6178H68.3191L75.5256 34.777H78.8769L71.2672 24.1025C72.4935 23.6444 73.4594 22.9328 74.1649 21.9675C74.8705 21.0023 75.2233 19.9144 75.2233 18.7038C75.2233 17.6241 74.9377 16.6343 74.3665 15.7346C73.8122 14.8184 73.0227 14.0823 71.9979 13.526C70.9732 12.9698 69.7469 12.6917 68.3191 12.6917H62.6244ZM68.3191 22.262H65.4969V15.1947H68.3191C69.579 15.1947 70.5869 15.5219 71.3428 16.1763C72.1155 16.8307 72.5019 17.6732 72.5019 18.7038C72.5019 19.2764 72.3507 19.8408 72.0483 20.397C71.7628 20.9369 71.3092 21.3868 70.6877 21.7467C70.0829 22.0902 69.2934 22.262 68.3191 22.262ZM82.5172 34.777V12.6917H85.3897V34.777H82.5172ZM99.8666 15.1947L89.9135 34.777H103.671V32.274H94.1719L104.125 12.6917H90.9718V15.1947H99.8666Z" fill="white"/>
<path d="M145.813 33.1133L153.106 15.3125H153.144L160.437 33.1133H158.121L156.092 28.0027H150.063L148.014 33.1133H145.813ZM150.79 26.1844H155.364L154.005 22.7773C153.84 22.3435 153.68 21.916 153.527 21.4949C153.374 21.0738 153.221 20.5698 153.068 19.9828C152.914 20.5698 152.768 21.0738 152.627 21.4949C152.487 21.9033 152.327 22.3307 152.149 22.7773L150.79 26.1844Z" fill="white"/>
<path d="M164.632 33.1133V15.8867H168.957C170.042 15.8867 170.973 16.1036 171.752 16.5375C172.53 16.9714 173.13 17.5456 173.551 18.2602C173.985 18.962 174.202 19.734 174.202 20.5762C174.202 21.5204 173.934 22.369 173.398 23.1219C172.862 23.8747 172.128 24.4298 171.197 24.7871L176.977 33.1133H174.432L168.957 25.1891H166.814V33.1133H164.632ZM166.814 23.3516H168.957C169.697 23.3516 170.297 23.2176 170.757 22.9496C171.229 22.6689 171.573 22.318 171.79 21.8969C172.02 21.463 172.135 21.0228 172.135 20.5762C172.135 19.7723 171.841 19.1151 171.254 18.6047C170.68 18.0943 169.914 17.8391 168.957 17.8391H166.814V23.3516Z" fill="white"/>
<path d="M194.432 33.6875L193.016 31.984C192.314 32.4561 191.542 32.8198 190.7 33.075C189.858 33.3302 188.977 33.4578 188.058 33.4578C186.821 33.4578 185.653 33.2281 184.556 32.7688C183.471 32.2966 182.514 31.6522 181.685 30.8355C180.868 30.0189 180.224 29.0682 179.751 27.9836C179.292 26.899 179.062 25.7378 179.062 24.5C179.062 23.2622 179.292 22.101 179.751 21.0164C180.224 19.9318 180.868 18.9811 181.685 18.1645C182.514 17.3478 183.471 16.7098 184.556 16.2504C185.653 15.7783 186.821 15.5422 188.058 15.5422C189.309 15.5422 190.477 15.7783 191.561 16.2504C192.646 16.7098 193.596 17.3478 194.413 18.1645C195.243 18.9811 195.887 19.9318 196.346 21.0164C196.818 22.101 197.055 23.2622 197.055 24.5C197.055 25.725 196.825 26.8734 196.365 27.9453C195.906 29.0172 195.281 29.9551 194.49 30.759L196.921 33.6875H194.432ZM188.058 31.3906C189.36 31.3906 190.54 31.0525 191.599 30.3762L186.719 24.5H189.283L193.112 29.0938C193.635 28.4813 194.043 27.7858 194.337 27.0074C194.643 26.2163 194.796 25.3805 194.796 24.5C194.796 23.224 194.496 22.0691 193.896 21.0355C193.309 19.9892 192.505 19.1598 191.485 18.5473C190.464 17.922 189.322 17.6094 188.058 17.6094C186.795 17.6094 185.653 17.922 184.632 18.5473C183.624 19.1598 182.82 19.9892 182.221 21.0355C181.621 22.0691 181.321 23.224 181.321 24.5C181.321 25.7633 181.621 26.9181 182.221 27.9645C182.82 29.0108 183.624 29.8466 184.632 30.4719C185.653 31.0844 186.795 31.3906 188.058 31.3906Z" fill="white"/>
<path d="M207.243 33.343C206.159 33.343 205.195 33.1069 204.353 32.6348C203.511 32.1499 202.847 31.4863 202.362 30.6441C201.89 29.7892 201.654 28.8066 201.654 27.6965V15.8867H203.836V27.6199C203.836 28.7556 204.162 29.668 204.812 30.357C205.463 31.0461 206.286 31.3906 207.282 31.3906C208.264 31.3906 209.081 31.0525 209.732 30.3762C210.395 29.6871 210.727 28.7939 210.727 27.6965V15.8867H212.832V27.6199C212.832 28.7428 212.59 29.7382 212.105 30.6059C211.633 31.4608 210.976 32.1307 210.134 32.6156C209.304 33.1005 208.341 33.343 207.243 33.343Z" fill="white"/>
<path d="M218.922 33.1133V15.8867H221.104V33.1133H218.922Z" fill="white"/>
<path d="M226.033 17.8391V15.8867H237.403V17.8391H232.809V33.1133H230.627V17.8391H226.033Z" fill="white"/>
<path d="M242.121 33.1133V15.8867H250.619V17.8391H244.303V21.5141H249.279V23.4664H244.303V31.1609H250.619V33.1133H242.121Z" fill="white"/>
<path d="M254.064 17.8391V15.8867H265.434V17.8391H260.84V33.1133H258.658V17.8391H254.064Z" fill="white"/>
<path d="M275.396 33.343C274.311 33.343 273.348 33.1069 272.506 32.6348C271.663 32.1499 271 31.4863 270.515 30.6441C270.043 29.7892 269.807 28.8066 269.807 27.6965V15.8867H271.989V27.6199C271.989 28.7556 272.314 29.668 272.965 30.357C273.616 31.0461 274.439 31.3906 275.434 31.3906C276.417 31.3906 277.233 31.0525 277.884 30.3762C278.548 29.6871 278.88 28.7939 278.88 27.6965V15.8867H280.985V27.6199C280.985 28.7428 280.743 29.7382 280.258 30.6059C279.785 31.4608 279.128 32.1307 278.286 32.6156C277.457 33.1005 276.493 33.343 275.396 33.343Z" fill="white"/>
<path d="M286.902 33.1133V15.8867H291.228C292.313 15.8867 293.244 16.1036 294.023 16.5375C294.801 16.9714 295.401 17.5456 295.822 18.2602C296.256 18.962 296.473 19.734 296.473 20.5762C296.473 21.5204 296.205 22.369 295.669 23.1219C295.133 23.8747 294.399 24.4298 293.468 24.7871L299.248 33.1133H296.702L291.228 25.1891H289.084V33.1133H286.902ZM289.084 23.3516H291.228C291.968 23.3516 292.568 23.2176 293.027 22.9496C293.5 22.6689 293.844 22.318 294.061 21.8969C294.291 21.463 294.406 21.0228 294.406 20.5762C294.406 19.7723 294.112 19.1151 293.525 18.6047C292.951 18.0943 292.185 17.8391 291.228 17.8391H289.084V23.3516Z" fill="white"/>
<path d="M301.095 33.1133L308.387 15.3125H308.425L315.718 33.1133H313.402L311.373 28.0027H305.344L303.296 33.1133H301.095ZM306.071 26.1844H310.646L309.287 22.7773C309.121 22.3435 308.961 21.916 308.808 21.4949C308.655 21.0738 308.502 20.5698 308.349 19.9828C308.196 20.5698 308.049 21.0738 307.909 21.4949C307.768 21.9033 307.609 22.3307 307.43 22.7773L306.071 26.1844Z" fill="white"/>
</svg>
